<svg xmlns="http://www.w3.org/2000/svg"  viewBox="0 0 96 96" width="96px" height="96px" baseProfile="basic"><path fill="#4d4dff" d="M31.264,82.013c-12.131,0-17.307-4.686-17.307-15.669c0-1.744,0.006-9.382,0.012-17.343	c0.007-8.661,0.014-17.704,0.014-19.951c0-15.063,11.121-15.063,16.466-15.063h35.462c15.266,0,15.977,5.907,15.977,17.227	c0,1.018-0.507,1.917-1.282,2.459c0.794,0.521,1.33,1.409,1.357,2.431c0.149,5.577,0.054,17.227-0.01,24.936	c-0.021,2.605-0.039,4.657-0.039,5.683c0,5.124-1.333,9.037-3.96,11.629c-3.813,3.763-9.197,3.692-12.421,3.648	c-0.312-0.004-0.608-0.008-0.884-0.008c-3.769,0-12.49,0.007-20.161,0.013C38.464,82.009,33.088,82.013,31.264,82.013z M30.449,19.987c-6.489,0-10.466,0.438-10.466,9.063c0,2.248-0.007,11.293-0.014,19.956c-0.006,7.959-0.012,15.595-0.012,17.338	c0,6.818,1.571,9.669,11.307,9.669c1.823,0,7.198-0.004,13.22-0.009c7.673-0.006,16.396-0.013,20.166-0.013	c0.301,0,0.624,0.004,0.965,0.009c2.575,0.033,6.099,0.081,8.127-1.919c1.443-1.424,2.174-3.899,2.174-7.358	c0-1.035,0.017-3.105,0.039-5.732c0.059-7.201,0.158-19.254,0.012-24.725c-0.028-1.046,0.483-1.982,1.281-2.54	c-0.818-0.536-1.358-1.46-1.358-2.511c0-4.601-0.083-7.967-1.163-9.382c-0.974-1.276-3.692-1.845-8.814-1.845H30.449z" opacity=".3"/><path fill="#4d4dff" d="M31.264,81.013c-11.583,0-16.307-4.25-16.307-14.669c0-1.744,0.006-9.382,0.012-17.342	c0.007-8.662,0.014-17.705,0.014-19.952c0-14.063,10.061-14.063,15.466-14.063h35.462c14.372,0,14.977,4.975,14.977,16.227	c0,1.104-0.896,2-2,2s-2-0.896-2-2c0-10.36,0-12.227-10.977-12.227H30.449c-6.926,0-11.466,0.7-11.466,10.063	c0,2.247-0.007,11.292-0.014,19.955c-0.006,7.959-0.012,15.596-0.012,17.339c0,7.229,1.841,10.669,12.307,10.669	c1.823,0,7.198-0.004,13.22-0.009c7.673-0.006,16.396-0.013,20.165-0.013c0.297,0,0.615,0.004,0.951,0.009	c2.754,0.038,6.518,0.087,8.843-2.208c1.641-1.619,2.472-4.334,2.472-8.07c0-1.034,0.017-3.101,0.039-5.724	c0.059-7.208,0.159-19.271,0.011-24.76c-0.029-1.104,0.842-2.023,1.946-2.053c1.127-0.041,2.023,0.841,2.053,1.946	c0.149,5.559,0.049,17.667-0.01,24.9c-0.021,2.609-0.039,4.664-0.039,5.691c0,4.846-1.232,8.52-3.663,10.917	c-3.516,3.47-8.444,3.408-11.706,3.36c-0.317-0.004-0.618-0.008-0.898-0.008c-3.769,0-12.49,0.007-20.162,0.013	C38.464,81.009,33.088,81.013,31.264,81.013z" opacity=".3"/><path fill="#0fd2ff" d="M33.825,70.045c-0.498,0-0.977-0.022-1.418-0.042c-0.379-0.017-0.9-0.042-1.07-0.023	c-0.101,0.01-0.235,0.019-0.336,0.019c-2.757,0-5-2.243-5-5v-21c0-2.757,2.243-5,5-5c0.128,0,0.256,0.008,0.383,0.024	c0.179,0.019,0.728-0.006,1.092-0.022c1.881-0.084,4.458-0.202,6.211,1.514c0.652,0.639,1.42,1.774,1.376,3.558l0.001,20.926	c0.045,1.701-0.723,2.837-1.375,3.477C37.332,69.806,35.477,70.045,33.825,70.045z M34.064,65.042c0,0.012,0,0.023,0,0.034V65.042z M32,63.982c0.222,0.007,0.448,0.017,0.678,0.027c0.367,0.017,0.924,0.045,1.386,0.032l-0.001-19.08	c-0.448-0.004-0.968,0.017-1.316,0.033c-0.254,0.012-0.503,0.023-0.747,0.03V63.982z M34.063,43.999c0,0.007,0,0.014,0,0.021V43.999	z" opacity=".3"/><path fill="#0fd2ff" d="M33.842,69.045c-0.478,0-0.947-0.021-1.391-0.041c-0.464-0.021-0.989-0.045-1.227-0.018	c-0.075,0.008-0.15,0.013-0.225,0.013c-2.206,0-4-1.794-4-4v-21c0-2.206,1.794-4,4-4c0.086,0,0.172,0.005,0.258,0.017	c0.237,0.029,0.781,0.006,1.263-0.016c1.793-0.082,4.025-0.182,5.466,1.229c0.51,0.5,1.111,1.395,1.076,2.819l0,20.951	c0.036,1.368-0.564,2.262-1.075,2.763C36.888,68.841,35.325,69.045,33.842,69.045z M31.54,64.975c0.347,0,0.714,0.017,1.092,0.034	c0.637,0.028,1.885,0.084,2.431-0.07V44.059c-0.536-0.146-1.744-0.091-2.361-0.063c-0.607,0.027-1.185,0.054-1.704,0.013L31,64.991	C31.173,64.979,31.354,64.975,31.54,64.975z" opacity=".3"/><path fill="#0fd2ff" d="M33.499,39.001c-0.059,0-0.118-0.001-0.177-0.002c-0.004,0-0.007,0-0.011,0	c-2.627,0-4.786-1.271-5.931-3.495c-1.231-2.393-0.993-5.466,0.594-7.649c1.474-2.027,3.91-2.981,6.509-2.56	c1.218,0.199,2.144,1.104,2.427,2.229c1.213-0.043,2.383,0.675,2.868,1.868c0.906,2.224,0.632,4.809-0.715,6.745	C37.791,37.966,35.773,39.001,33.499,39.001z M33.354,32.999c0.049,0,0.098,0.002,0.143,0.002c0.387,0,0.545-0.154,0.64-0.291	c0.149-0.215,0.261-0.62,0.084-1.056c-0.054-0.132-0.098-0.266-0.131-0.4c-0.188,0.006-0.38-0.006-0.574-0.038	c-0.508-0.084-0.613,0.061-0.689,0.166c-0.256,0.352-0.309,0.995-0.113,1.375c0.054,0.104,0.145,0.271,0.615,0.241	C33.338,32.999,33.346,32.999,33.354,32.999z" opacity=".3"/><path fill="#0fd2ff" d="M33.496,38.001c-0.068,0-0.136-0.001-0.204-0.003c-2.183,0.025-4.047-1.056-5.023-2.952	c-1.063-2.064-0.856-4.718,0.514-6.604c1.266-1.741,3.29-2.524,5.54-2.161c1.09,0.178,1.83,1.206,1.652,2.296	c-0.015,0.091-0.036,0.181-0.063,0.267c0.104-0.067,0.215-0.126,0.334-0.174c1.023-0.416,2.19,0.075,2.607,1.098	c0.779,1.915,0.545,4.135-0.61,5.796C37.161,37.121,35.439,38.001,33.496,38.001z M33.338,33.999	c0.929,0.041,1.383-0.375,1.621-0.717c0.391-0.562,0.463-1.33,0.188-2.003c-0.181-0.446-0.19-0.918-0.059-1.344	c-0.402,0.262-0.899,0.379-1.411,0.296c-0.761-0.125-1.289,0.055-1.659,0.564c-0.48,0.661-0.563,1.701-0.193,2.421	C32.001,33.556,32.389,34.035,33.338,33.999z" opacity=".3"/><path fill="#0fd2ff" d="M47.779,70.044c-0.49,0-0.961-0.021-1.396-0.04c-0.373-0.017-0.886-0.039-1.057-0.022	C45.227,69.992,45.101,70,45,70c-2.757,0-5-2.243-5-5V43.999c-0.044-1.703,0.724-2.838,1.375-3.477	c1.761-1.727,4.355-1.61,6.25-1.527c0.375,0.017,0.887,0.041,1.058,0.022c0.114-0.011,0.256-0.019,0.368-0.018	c1.721,0,2.823,0.757,3.447,1.397c0.212,0.218,0.396,0.448,0.555,0.688c0.364-0.946,1.199-1.685,2.27-1.878	c4.223-0.759,8.124,0.146,10.988,2.55c2.151,1.805,4.711,5.303,4.688,11.717L71,65c0,2.757-2.243,5-5,5	c-0.123,0-0.246-0.007-0.368-0.022c-0.175-0.02-0.724,0.006-1.087,0.021c-1.863,0.083-4.411,0.195-6.157-1.507	c-0.652-0.636-1.422-1.768-1.388-3.549l0-10.427c0.01-0.73-0.242-0.974-0.517-1.134c-0.55-0.32-1.409-0.32-1.958,0	c-0.274,0.16-0.526,0.403-0.517,1.09l0,10.528c0.045,1.701-0.722,2.836-1.374,3.476C51.279,69.808,49.426,70.044,47.779,70.044z M48.01,65.043c0,0.011,0,0.023,0,0.034V65.043z M63,64.983V65C63,64.995,63,64.989,63,64.983z M46,63.984	c0.213,0.006,0.429,0.016,0.65,0.026c0.359,0.016,0.899,0.042,1.36,0.031l-0.001-9.526c-0.032-2.152,0.783-4.072,2.276-5.427	c-1.352-0.334-2.33-1.582-2.274-3.028l0.006-0.163c0.009-0.22,0.022-0.56,0.021-0.882c-0.223-0.006-0.449-0.017-0.68-0.027	c-0.359-0.017-0.899-0.042-1.36-0.031L46,63.984z M63,64.036c0.438,0.006,0.941-0.017,1.279-0.032	c0.245-0.011,0.485-0.021,0.721-0.028l-0.001-10.514c0.012-3.249-0.868-5.704-2.545-7.111c-1.477-1.239-3.632-1.68-6.069-1.24	c-0.866,0.155-1.71-0.076-2.356-0.572c0.025,0.593,0.003,1.144-0.016,1.6l-0.006,0.153c-0.014,0.363-0.092,0.708-0.222,1.026	c1.928-0.417,4.003-0.122,5.723,0.882c2.259,1.318,3.531,3.636,3.492,6.359L63,64.036z M45.999,43.924v0.033	C46,43.945,46,43.935,45.999,43.924z" opacity=".3"/><path fill="#0fd2ff" d="M47.796,69.045c-0.471,0-0.933-0.021-1.369-0.04c-0.456-0.02-0.971-0.042-1.209-0.017	C45.146,68.996,45.073,69,45,69c-2.206,0-4-1.794-4-4V43.999c-0.035-1.369,0.565-2.263,1.075-2.763	c1.451-1.422,3.7-1.322,5.506-1.242c0.457,0.021,0.974,0.043,1.21,0.017c0.086-0.01,0.172-0.014,0.258-0.012	c1.375,0,2.243,0.593,2.732,1.095c1.377,1.414,1.291,3.576,1.233,5.006l-0.006,0.154c-0.042,1.104-0.978,1.963-2.076,1.921	c-1.104-0.042-1.964-0.972-1.921-2.076l0.006-0.162c0.019-0.458,0.059-1.457-0.069-1.928c-0.474,0.027-0.996,0.003-1.544-0.021	c-0.63-0.028-1.863-0.083-2.403,0.071v20.932c0.489-0.033,1.033-0.009,1.605,0.017c0.629,0.028,1.863,0.083,2.404-0.07V54.516	c-0.034-2.322,1.057-4.32,2.995-5.451c2.094-1.222,4.906-1.222,7,0c1.938,1.131,3.03,3.129,2.996,5.48v10.395	c0.526,0.144,1.715,0.091,2.324,0.064c0.595-0.026,1.163-0.05,1.676-0.013l-0.001-11.529c0.013-3.551-0.991-6.272-2.902-7.876	c-1.708-1.433-4.155-1.949-6.889-1.459c-1.081,0.198-2.127-0.526-2.322-1.614c-0.196-1.087,0.527-2.127,1.614-2.322	c3.925-0.706,7.536,0.122,10.168,2.331c1.987,1.668,4.352,4.921,4.331,10.948L70,65c0,2.206-1.794,4-4,4	c-0.082,0-0.164-0.005-0.245-0.015c-0.244-0.031-0.78-0.006-1.254,0.015c-1.774,0.08-3.978,0.177-5.414-1.224	c-0.511-0.498-1.114-1.391-1.086-2.814l0-10.446c0.014-0.948-0.318-1.592-1.013-1.997c-0.86-0.502-2.107-0.501-2.966,0	c-0.694,0.405-1.025,1.049-1.012,1.968V65c0.036,1.368-0.564,2.262-1.074,2.762C50.835,68.842,49.275,69.045,47.796,69.045z M49.099,44c0.004,0.001,0.008,0.002,0.012,0.003v-0.004C49.106,43.999,49.103,43.999,49.099,44z" opacity=".3"/><path fill="#4d4dff" d="M31.264,80.013c-12.704,0-15.307-5.464-15.307-13.669c0-1.744,0.006-9.381,0.012-17.341	c0.007-8.662,0.014-17.706,0.014-19.953c0-13.063,9.055-13.063,14.466-13.063h35.462c13.3,0,13.977,3.913,13.977,15.227	c0,0.552-0.448,1-1,1s-1-0.448-1-1c0-10.425,0-13.227-11.977-13.227H30.449c-7.063,0-12.466,0.814-12.466,11.063	c0,2.247-0.007,11.292-0.014,19.955c-0.006,7.959-0.012,15.596-0.012,17.34c0,7.568,2.121,11.669,13.307,11.669	c1.823,0,7.199-0.004,13.221-0.009c7.672-0.006,16.395-0.013,20.164-0.013c0.293,0,0.607,0.004,0.938,0.009	c2.926,0.036,6.936,0.092,9.559-2.496c1.838-1.813,2.77-4.768,2.77-8.782c0-1.032,0.017-3.096,0.039-5.716	c0.059-7.214,0.159-19.289,0.011-24.795c-0.015-0.552,0.42-1.012,0.973-1.026c0.575-0.022,1.012,0.421,1.026,0.973	c0.148,5.542,0.049,17.638-0.01,24.865c-0.021,2.612-0.039,4.67-0.039,5.7c0,4.569-1.132,8.002-3.365,10.206	c-3.218,3.176-7.893,3.114-10.99,3.072c-0.322-0.004-0.626-0.008-0.911-0.008c-3.769,0-12.491,0.007-20.163,0.013	C38.464,80.009,33.088,80.013,31.264,80.013z"/><path fill="#0fd2ff" d="M33.818,68.044c-0.452,0-0.9-0.02-1.321-0.039c-0.55-0.026-1.068-0.048-1.384-0.013	c-0.038,0.004-0.075,0.006-0.113,0.006c-1.654,0-3-1.346-3-3v-21c0-1.654,1.346-3,3-3c0.043,0,0.086,0.003,0.129,0.008	c0.325,0.043,0.864,0.018,1.437-0.008c1.598-0.075,3.589-0.163,4.721,0.945c0.369,0.361,0.802,1.015,0.776,2.08l0,20.976	c0.027,1.034-0.407,1.688-0.775,2.049C36.44,67.879,35.111,68.044,33.818,68.044z M31.538,65.974c0.319,0,0.669,0.016,1.049,0.033	c1.104,0.051,2.777,0.125,3.3-0.387c0.051-0.05,0.187-0.183,0.176-0.595l0-21.026c0.011-0.443-0.125-0.576-0.176-0.626	c-0.51-0.499-2.146-0.425-3.231-0.375c-0.655,0.029-1.225,0.055-1.705,0.003C30.422,43.026,30,43.464,30,43.999v21	c0,0.537,0.426,0.977,0.957,0.999C31.138,65.981,31.332,65.974,31.538,65.974z"/><path fill="#0fd2ff" d="M33.494,37.001c-0.057,0-0.113-0.001-0.17-0.003c-1.831-0.015-3.369-0.862-4.166-2.41	c-0.88-1.71-0.702-3.996,0.434-5.558c1.036-1.424,2.701-2.064,4.569-1.761c0.545,0.089,0.915,0.603,0.826,1.148	c-0.089,0.544-0.597,0.915-1.148,0.826c-1.426-0.233-2.216,0.395-2.629,0.964c-0.698,0.96-0.813,2.418-0.273,3.466	c0.315,0.612,1.016,1.332,2.41,1.326c1.037,0.02,1.897-0.375,2.434-1.146c0.582-0.837,0.695-1.968,0.294-2.952	c-0.208-0.511,0.038-1.095,0.549-1.303c0.511-0.209,1.095,0.037,1.303,0.549c0.653,1.604,0.459,3.462-0.505,4.848	C36.53,36.276,35.106,37.001,33.494,37.001z"/><path fill="#0fd2ff" d="M47.772,68.044c-0.445,0-0.885-0.02-1.3-0.038c-0.54-0.023-1.05-0.046-1.363-0.012	C45.073,67.998,45.037,68,45,68c-1.654,0-3-1.346-3-3V43.999c-0.026-1.035,0.407-1.688,0.775-2.049	c1.14-1.119,3.148-1.03,4.761-0.957c0.54,0.024,1.05,0.048,1.364,0.012c1.139-0.03,1.805,0.417,2.165,0.787	c1.078,1.106,1,3.009,0.95,4.268l-0.006,0.156c-0.021,0.551-0.46,1.017-1.038,0.96c-0.552-0.021-0.982-0.486-0.96-1.038l0.006-0.16	c0.035-0.861,0.093-2.302-0.384-2.792c-0.051-0.053-0.176-0.197-0.609-0.188c-0.371,0.046-0.93,0.021-1.576-0.008	c-1.094-0.048-2.752-0.122-3.272,0.387c-0.051,0.05-0.187,0.183-0.176,0.597L44,65c0,0.538,0.426,0.977,0.958,0.999	c0.453-0.042,0.987-0.018,1.603,0.009c1.095,0.048,2.753,0.122,3.273-0.387c0.051-0.05,0.186-0.183,0.176-0.595l0-10.51	c-0.029-1.966,0.882-3.644,2.499-4.588c1.792-1.046,4.199-1.046,5.991,0c1.618,0.944,2.529,2.622,2.5,4.603V65	c-0.008,0.443,0.129,0.577,0.181,0.628c0.507,0.494,2.122,0.423,3.187,0.375c0.617-0.027,1.2-0.053,1.679-0.003	C66.577,65.975,67,65.536,67,65l-0.001-11.538c0.014-3.854-1.113-6.841-3.259-8.642c-1.939-1.627-4.678-2.225-7.708-1.677	c-0.548,0.096-1.063-0.264-1.162-0.807c-0.098-0.543,0.264-1.063,0.807-1.162c3.628-0.651,6.947,0.098,9.349,2.113	c2.616,2.195,3.99,5.714,3.974,10.178L69,65c0,1.654-1.346,3-3,3c-0.041,0-0.082-0.002-0.123-0.007	c-0.328-0.042-0.859-0.017-1.421,0.008c-1.579,0.069-3.545,0.157-4.671-0.94C59.416,66.7,58.98,66.047,59,64.981V54.516	c0.023-1.625-0.808-2.452-1.509-2.861c-1.17-0.683-2.805-0.682-3.974,0c-0.701,0.409-1.532,1.235-1.508,2.846V65	c0.027,1.034-0.406,1.687-0.774,2.049C50.388,67.88,49.061,68.044,47.772,68.044z"/></svg>